<svg xmlns="http://www.w3.org/2000/svg" xmlns:xlink="http://www.w3.org/1999/xlink" id="Layer_1" data-name="Layer 1" viewBox="0 0 226.92 125.59"><defs><style>      .cls-1 {        fill: none;      }      .cls-2 {        fill: #71560e;      }      .cls-3 {        fill: #c3a071;      }      .cls-4 {        clip-path: url(#clippath);      }    </style><clipPath id="clippath"><rect class="cls-1" x="12.14" y="12.79" width="201.01" height="100"></rect></clipPath></defs><g class="cls-4"><g id="Group_2402" data-name="Group 2402"><path id="Path_1297" data-name="Path 1297" class="cls-2" d="M125.06,58.97h0c-1.53-.05-3.01-.55-4.26-1.45l-.07-.04v-1.83l.22.17c1.14.97,2.55,1.57,4.04,1.71.87.01,1.72-.31,2.35-.91,1.11-1.05,1.27-2.77.35-4-.67-.71-1.51-1.23-2.44-1.51-.93-.34-1.84-.73-2.72-1.17-.57-.32-1.06-.77-1.43-1.31-.41-.66-.61-1.43-.58-2.2-.01-1.21.51-2.36,1.42-3.16.92-.87,2.14-1.34,3.4-1.31,1.35.02,2.67.38,3.84,1.05l.07.04v1.71l-.21-.12c-1.07-.71-2.3-1.13-3.58-1.22-.87-.03-1.72.28-2.37.85-.6.53-.95,1.3-.95,2.1,0,.59.2,1.16.57,1.62.66.67,1.48,1.15,2.38,1.41.93.34,1.84.74,2.73,1.19.61.34,1.12.82,1.5,1.41.44.71.65,1.53.62,2.37.02,1.24-.5,2.44-1.42,3.27-.93.88-2.18,1.36-3.46,1.33"></path><path id="Path_1298" data-name="Path 1298" class="cls-2" d="M129.12,43.14h0v1.39c-1.09-.73-2.35-1.16-3.65-1.25-.9-.04-1.79.28-2.46.89-.64.55-1,1.36-.99,2.21,0,.62.2,1.21.58,1.7.68.69,1.52,1.19,2.45,1.46.92.34,1.83.73,2.71,1.17,1.33.72,2.12,2.14,2.04,3.66.03,1.21-.48,2.37-1.38,3.18-.9.86-2.11,1.32-3.35,1.29-1.5-.05-2.96-.54-4.18-1.42v-1.49c1.16.99,2.6,1.6,4.12,1.74.91.03,1.79-.31,2.44-.93.65-.59,1.02-1.43,1-2.32,0-.67-.21-1.33-.62-1.87-.68-.73-1.55-1.27-2.51-1.57-.92-.33-1.83-.72-2.7-1.17-.56-.3-1.04-.73-1.39-1.26-.4-.63-.6-1.37-.57-2.12-.02-1.18.49-2.3,1.38-3.07.9-.84,2.09-1.3,3.31-1.27,1.32.01,2.62.37,3.77,1.02"></path><path id="Path_1299" data-name="Path 1299" class="cls-2" d="M133.51,58.78h0v-16.6h9.16v1.33h-7.63v6.25h7.43v1.34h-7.43v6.35h7.81v1.33h-9.35Z"></path><path id="Path_1300" data-name="Path 1300" class="cls-2" d="M142.54,42.32h0v1.05h-7.64v6.52h7.44v1.07h-7.44v6.62h7.82v1.06h-9.08v-16.31h8.9Z"></path><path id="Path_1301" data-name="Path 1301" class="cls-2" d="M150.26,49.62h0c1.09.07,2.17-.21,3.08-.81.7-.53,1.09-1.37,1.04-2.25.04-.87-.35-1.71-1.05-2.24-.92-.6-2.01-.89-3.1-.82h-2.53v6.11h2.56ZM157.07,58.78h0l-2.88-4.54c-.57-1.03-1.31-1.96-2.18-2.75-.68-.4-1.46-.58-2.25-.53h-2.06v7.81h-1.54v-16.58h4.31c1.46-.09,2.91.32,4.1,1.17.96.77,1.49,1.95,1.45,3.18.02,1.84-1.18,3.46-2.93,4,.79.68,1.45,1.48,1.97,2.38l3.83,5.85h-1.82Z"></path><path id="Path_1302" data-name="Path 1302" class="cls-2" d="M147.55,43.37h0v6.38h2.71c1.11.07,2.22-.22,3.15-.83.73-.56,1.14-1.45,1.1-2.37.04-.91-.37-1.79-1.1-2.34-.94-.62-2.07-.92-3.19-.84h-2.67ZM146.29,42.32h4.18c1.43-.1,2.85.3,4.02,1.13.91.76,1.43,1.89,1.39,3.08,0,1.88-1.04,3.21-3.11,3.97.91.65,1.65,1.5,2.17,2.49l3.69,5.64h-1.49l-2.84-4.47c-.58-1.05-1.33-2-2.22-2.8-.7-.41-1.51-.61-2.32-.55h-2.22v7.83h-1.26v-16.31Z"></path><path id="Path_1303" data-name="Path 1303" class="cls-2" d="M160.84,58.78h0v-16.6h9.16v1.33h-7.63v6.25h7.43v1.34h-7.43v6.35h7.82v1.33h-9.36Z"></path><path id="Path_1304" data-name="Path 1304" class="cls-2" d="M169.87,42.32h0v1.05h-7.64v6.52h7.44v1.07h-7.44v6.62h7.82v1.06h-9.08v-16.31h8.9Z"></path><path id="Path_1305" data-name="Path 1305" class="cls-2" d="M187.2,58.78h0l-12.2-14.03v14.03h-1.54v-16.6h1.28l12.16,14.03v-14.03h1.54v16.6h-1.24Z"></path><path id="Path_1306" data-name="Path 1306" class="cls-2" d="M188.3,42.32h0v16.31h-1.04l-12.4-14.26v14.26h-1.26v-16.31h1.06l12.37,14.26v-14.26h1.26Z"></path><rect id="Rectangle_2676" data-name="Rectangle 2676" class="cls-2" x="192.85" y="42.18" width="1.54" height="16.6"></rect><rect id="Rectangle_2677" data-name="Rectangle 2677" class="cls-2" x="193" y="42.32" width="1.25" height="16.31"></rect><path id="Path_1307" data-name="Path 1307" class="cls-2" d="M205.03,44.6l3.29,7.21h-6.57l3.29-7.21ZM204.61,42.06l-7.66,16.72h1.62l2.58-5.64h7.8l2.58,5.64h1.64l-7.67-16.72h-.88Z"></path><path id="Path_1308" data-name="Path 1308" class="cls-2" d="M205.03,44.26l3.51,7.68h-7.01l3.5-7.68ZM204.69,42.21l-7.53,16.43h1.32l2.58-5.64h7.97l2.58,5.64h1.33l-7.53-16.43h-.7Z"></path><path id="Path_1309" data-name="Path 1309" class="cls-2" d="M175.9,66.84h0v16.44h-1.05l-12.5-14.37v14.37h-1.27v-16.43h1.07l12.47,14.37v-14.37h1.27Z"></path><path id="Path_1310" data-name="Path 1310" class="cls-2" d="M120.52,67.06h1.54v14.9h9.09v1.32h-10.63v-16.22Z"></path><rect id="Rectangle_2678" data-name="Rectangle 2678" class="cls-2" x="134.8" y="67.28" width="1.54" height="16.22"></rect><path id="Path_1311" data-name="Path 1311" class="cls-2" d="M138.65,67.06h1.66l5.27,14.51h.05l5.22-14.51h1.63l-6.02,16.22h-1.79l-6.02-16.22Z"></path><rect id="Rectangle_2679" data-name="Rectangle 2679" class="cls-2" x="155.2" y="67.06" width="1.54" height="16.22"></rect><path id="Path_1312" data-name="Path 1312" class="cls-2" d="M194.45,83.28h-1.11l-.2-2.95h-.04c-.49,1.06-1.31,1.94-2.34,2.51-.49.27-1.01.46-1.56.59-.56.13-1.14.19-1.71.19-1.15.02-2.3-.21-3.35-.69-.93-.43-1.75-1.07-2.4-1.86-.65-.8-1.13-1.72-1.43-2.7-.64-2.08-.64-4.3,0-6.38.3-.98.78-1.9,1.43-2.7.65-.79,1.47-1.43,2.4-1.86,1.05-.48,2.2-.72,3.35-.69.81,0,1.63.11,2.41.34.73.22,1.42.56,2.03,1.02.6.46,1.11,1.04,1.5,1.69.42.72.7,1.51.83,2.33h-1.54c-.06-.5-.21-.98-.47-1.42-.28-.5-.65-.94-1.08-1.31-.47-.41-1.02-.74-1.6-.96-.67-.26-1.38-.39-2.09-.38-.96-.03-1.91.18-2.77.61-.75.39-1.4.94-1.9,1.62-.5.69-.87,1.47-1.09,2.29-.47,1.71-.47,3.51,0,5.21.22.82.59,1.59,1.09,2.28.5.68,1.15,1.24,1.9,1.62.86.43,1.81.64,2.77.61.82.01,1.64-.14,2.4-.44.68-.28,1.29-.7,1.78-1.24.49-.54.86-1.19,1.09-1.88.25-.77.36-1.58.34-2.38h-5.53v-1.32h6.88v8.24Z"></path><path id="Path_1313" data-name="Path 1313" class="cls-3" d="M68.78,16.81c.76,1.52.9,3.28.37,4.89-.28.84-.72,1.63-1.29,2.31l-1.64,1.83-4.89,5.48c-.58.7-1.03,1.49-1.31,2.35-.4,1.21-.43,2.52-.09,3.75,0,.01-.01.01-.01,0l-1.98-4c-.76-1.52-.9-3.28-.37-4.89.28-.84.72-1.63,1.29-2.31l1.64-1.84,4.89-5.48c.58-.7,1.03-1.49,1.31-2.35.4-1.22.43-2.52.09-3.76,0,0,0-.01.01,0l1.98,4.01Z"></path><path id="Path_1314" data-name="Path 1314" class="cls-3" d="M68.84,29.11c.76,1.52.9,3.28.37,4.89-.28.84-.72,1.63-1.29,2.31l-1.64,1.83-4.89,5.48c-.58.7-1.03,1.49-1.31,2.35-.4,1.21-.43,2.52-.09,3.75,0,0,0,0,0,.01,0,0,0,0-.01,0l-1.98-4.01c-.76-1.52-.9-3.28-.37-4.89.28-.84.72-1.63,1.29-2.31l1.64-1.84,4.89-5.48c.58-.7,1.02-1.49,1.31-2.35.4-1.21.44-2.52.1-3.76,0,0,0,0,0,0s0,0,0,0h0l1.98,4.01Z"></path><path id="Path_1315" data-name="Path 1315" class="cls-3" d="M66.35,43.53c.45.9.53,1.95.22,2.91-.17.5-.43.97-.77,1.38l-.97,1.09-2.91,3.27c-.35.41-.61.89-.78,1.4-.24.72-.26,1.5-.06,2.23h0l-1.18-2.38c-.46-.9-.53-1.95-.22-2.91.17-.5.43-.97.77-1.38l.97-1.09,2.91-3.26c.34-.41.61-.89.78-1.4.24-.72.26-1.5.05-2.23h0l1.18,2.38Z"></path><path id="Path_1316" data-name="Path 1316" class="cls-3" d="M44.89,19.65c1.42.93,2.41,2.39,2.76,4.05.18.87.19,1.77.04,2.65l-.5,2.41-1.49,7.19c-.15.89-.14,1.81.04,2.69.26,1.25.88,2.4,1.8,3.3,0,0,0,0,0,.01,0,0,0,0,0,0l-3.72-2.48c-1.42-.93-2.42-2.39-2.77-4.06-.18-.87-.19-1.77-.04-2.65l.5-2.41,1.49-7.19c.15-.89.14-1.81-.04-2.69-.26-1.25-.89-2.4-1.8-3.3,0,0,0-.02,0-.01l3.72,2.49Z"></path><path id="Path_1317" data-name="Path 1317" class="cls-3" d="M51.1,30.28c1.42.93,2.41,2.39,2.76,4.05.18.87.19,1.77.04,2.65l-.5,2.41-1.49,7.19c-.15.89-.14,1.81.04,2.69.26,1.25.88,2.4,1.8,3.3,0,0,0,0,0,.01,0,0,0,0,0,0l-3.72-2.48c-1.42-.93-2.41-2.39-2.76-4.05-.18-.87-.19-1.77-.04-2.65l.5-2.41,1.49-7.19c.15-.89.14-1.81-.04-2.69-.26-1.25-.89-2.4-1.8-3.3,0,0,0-.02,0-.01l3.72,2.48Z"></path><path id="Path_1318" data-name="Path 1318" class="cls-3" d="M56.16,44.01c.84.55,1.44,1.42,1.64,2.41.1.52.11,1.05.02,1.58l-.3,1.43-.89,4.28c-.09.53-.08,1.07.02,1.6.15.74.53,1.43,1.07,1.96h0s-2.21-1.46-2.21-1.46c-.84-.55-1.44-1.42-1.64-2.41-.11-.52-.11-1.05-.02-1.58l.3-1.43.89-4.28c.09-.53.09-1.07-.02-1.6-.16-.74-.53-1.43-1.07-1.96h0s2.21,1.47,2.21,1.47Z"></path><path id="Path_1319" data-name="Path 1319" class="cls-3" d="M25.64,34.06c1.7.1,3.29.86,4.42,2.13.59.67,1.05,1.44,1.36,2.28l.77,2.34,2.3,6.98c.31.85.78,1.63,1.38,2.31.85.95,1.96,1.63,3.2,1.96,0,0,0,.02,0,.01l-4.46-.3c-1.7-.1-3.29-.86-4.42-2.13-.59-.67-1.05-1.44-1.36-2.27l-.77-2.33-2.3-6.98c-.31-.85-.78-1.63-1.38-2.31-.85-.95-1.97-1.64-3.21-1.96,0,0,0,0,0-.01,0,0,0,0,0,0l4.46.29Z"></path><path id="Path_1320" data-name="Path 1320" class="cls-3" d="M36.32,40.16c1.7.1,3.29.86,4.42,2.13.59.67,1.05,1.44,1.35,2.27l.77,2.33,2.3,6.98c.31.85.78,1.63,1.38,2.31.85.95,1.96,1.63,3.2,1.96.01,0,0,.02,0,.01l-4.46-.29c-1.7-.1-3.29-.86-4.42-2.13-.59-.67-1.05-1.44-1.36-2.27l-.77-2.33-2.3-6.98c-.31-.85-.78-1.63-1.38-2.31-.85-.95-1.97-1.64-3.21-1.96,0,0,0,0,0-.01,0,0,0,0,0,0l4.46.29Z"></path><path id="Path_1321" data-name="Path 1321" class="cls-3" d="M47.57,49.52c1.01.06,1.95.51,2.63,1.27.35.4.62.86.81,1.35l.46,1.39h0l1.37,4.15c.19.51.46.97.82,1.38.5.57,1.17.97,1.9,1.16,0,0,0,0,0,0,0,0,0,0,0,0l-2.65-.17c-1.01-.06-1.95-.51-2.63-1.27-.35-.4-.62-.86-.81-1.35l-.46-1.39-1.37-4.15c-.19-.51-.46-.97-.82-1.38-.51-.57-1.17-.97-1.91-1.16h0s2.66.16,2.66.16Z"></path><path id="Path_1322" data-name="Path 1322" class="cls-3" d="M16.16,56.16c1.52-.76,3.28-.9,4.89-.37.84.28,1.63.72,2.31,1.29l1.83,1.64,5.48,4.89c.7.58,1.49,1.02,2.35,1.31,1.21.4,2.52.43,3.75.09,0,0,0,0,.01,0,0,0,0,0,0,.01l-4.01,1.98c-1.52.76-3.28.9-4.89.37-.84-.28-1.63-.72-2.31-1.29l-1.84-1.63-5.48-4.89c-.7-.58-1.49-1.03-2.35-1.31-1.22-.4-2.52-.43-3.76-.09,0,0,0,0,0-.01,0,0,0,0,0,0l4-1.98Z"></path><path id="Path_1323" data-name="Path 1323" class="cls-3" d="M28.47,56.1c1.52-.76,3.28-.9,4.89-.37.84.28,1.63.72,2.31,1.29l1.83,1.64,5.48,4.89c.7.58,1.49,1.03,2.35,1.31,1.21.4,2.52.43,3.75.09,0,0,0,0,.01,0,0,0,0,0,0,.01l-4.01,1.98c-1.52.76-3.28.9-4.89.37-.84-.28-1.63-.72-2.31-1.29l-1.83-1.63-5.48-4.9c-.7-.58-1.49-1.03-2.35-1.31-1.22-.4-2.52-.43-3.76-.09,0,0-.01,0,0-.01l4-1.99Z"></path><path id="Path_1324" data-name="Path 1324" class="cls-3" d="M42.89,58.59c.9-.45,1.95-.53,2.91-.22.5.17.97.43,1.38.77l1.09.97,3.26,2.91c.41.35.89.61,1.4.78.72.24,1.5.26,2.23.05h0s-2.38,1.19-2.38,1.19c-.9.45-1.95.53-2.91.22-.5-.17-.97-.43-1.38-.77l-1.09-.97-3.26-2.91c-.41-.34-.89-.61-1.4-.78-.72-.24-1.5-.26-2.24-.05h0s2.39-1.18,2.39-1.18Z"></path><path id="Path_1325" data-name="Path 1325" class="cls-3" d="M19,80.04c.93-1.42,2.39-2.41,4.05-2.76.87-.18,1.77-.19,2.65-.04l2.41.5,7.19,1.49c.89.15,1.81.14,2.69-.04,1.25-.26,2.4-.88,3.3-1.79,0,0,0,0,.01,0,0,0,0,0,0,0l-2.48,3.72c-.93,1.42-2.39,2.42-4.06,2.76-.87.18-1.77.19-2.65.04l-2.41-.5-7.19-1.49c-.89-.15-1.81-.14-2.69.04-1.25.26-2.4.89-3.3,1.8,0,0-.02,0-.01,0l2.48-3.73Z"></path><path id="Path_1326" data-name="Path 1326" class="cls-3" d="M29.63,73.84c.93-1.42,2.39-2.41,4.05-2.76.87-.18,1.77-.19,2.65-.04l2.41.5,7.19,1.49c.89.15,1.81.14,2.69-.04,1.25-.26,2.4-.88,3.3-1.79,0,0,0,0,.01,0,0,0,0,0,0,0l-2.48,3.72c-.93,1.42-2.39,2.41-4.05,2.76-.87.18-1.77.19-2.65.04l-2.41-.5-7.19-1.49c-.89-.15-1.81-.14-2.69.04-1.25.26-2.4.89-3.3,1.8,0,0-.02,0-.01,0l2.48-3.72Z"></path><path id="Path_1327" data-name="Path 1327" class="cls-3" d="M43.36,68.78c.55-.84,1.42-1.44,2.41-1.65.52-.1,1.05-.11,1.58-.02l1.43.3,4.28.89c.53.09,1.07.08,1.6-.02.74-.15,1.43-.52,1.96-1.07h0s-1.47,2.22-1.47,2.22c-.55.85-1.42,1.44-2.41,1.64-.52.1-1.05.11-1.57.02l-1.43-.3-4.28-.89c-.53-.09-1.07-.09-1.6.02-.74.16-1.43.53-1.96,1.07h0s1.47-2.21,1.47-2.21Z"></path><path id="Path_1328" data-name="Path 1328" class="cls-3" d="M33.41,99.31c.1-1.7.86-3.29,2.13-4.42.67-.59,1.44-1.05,2.28-1.36l2.34-.77,6.98-2.3c.85-.31,1.63-.78,2.31-1.38.95-.85,1.63-1.96,1.96-3.2,0,0,.02,0,.01,0l-.3,4.46c-.1,1.7-.86,3.29-2.13,4.42-.67.59-1.44,1.05-2.27,1.35l-2.33.77-6.98,2.3c-.85.31-1.63.78-2.31,1.38-.95.85-1.64,1.97-1.96,3.21,0,0,0,0-.01,0,0,0,0,0,0,0l.29-4.46Z"></path><path id="Path_1329" data-name="Path 1329" class="cls-3" d="M39.51,88.61c.1-1.7.86-3.29,2.13-4.42.67-.59,1.44-1.05,2.27-1.36l2.33-.77,6.98-2.3c.85-.31,1.63-.78,2.31-1.38.95-.85,1.63-1.96,1.96-3.2,0,0,.02,0,.01,0l-.29,4.46c-.1,1.7-.86,3.29-2.13,4.42-.67.59-1.44,1.05-2.27,1.36l-2.33.77-6.98,2.3c-.85.31-1.63.78-2.31,1.38-.95.85-1.64,1.97-1.96,3.21,0,0,0,0-.01,0,0,0,0,0,0,0l.29-4.46Z"></path><path id="Path_1330" data-name="Path 1330" class="cls-3" d="M48.87,77.37c.06-1.01.51-1.95,1.27-2.63.4-.35.86-.62,1.35-.81l1.39-.46h0l4.15-1.37c.51-.19.97-.46,1.38-.82.57-.5.97-1.17,1.16-1.9,0,0,0,0,0,0,0,0,0,0,0,0l-.17,2.65c-.06,1.01-.51,1.95-1.27,2.63-.4.35-.86.62-1.35.81l-1.39.46-4.15,1.37c-.51.19-.97.46-1.38.82-.57.51-.97,1.17-1.16,1.91h0l.17-2.66Z"></path><path id="Path_1331" data-name="Path 1331" class="cls-3" d="M55.51,108.78c-.76-1.52-.9-3.28-.37-4.89.28-.84.72-1.63,1.29-2.31l1.64-1.83,4.89-5.48c.58-.7,1.03-1.49,1.32-2.35.4-1.21.43-2.52.09-3.75,0,0,0,0,.01,0,0,0,0,0,0,0l1.98,4.01c.76,1.52.9,3.28.37,4.89-.28.84-.72,1.63-1.29,2.31l-1.64,1.83-4.89,5.48c-.58.7-1.03,1.49-1.31,2.35-.4,1.22-.43,2.52-.09,3.76,0,0-.01.01-.01,0l-1.99-4.01Z"></path><path id="Path_1332" data-name="Path 1332" class="cls-3" d="M55.45,96.47c-.76-1.52-.9-3.28-.37-4.89.28-.84.72-1.63,1.29-2.31l1.64-1.83,4.89-5.48c.58-.7,1.03-1.49,1.32-2.35.4-1.21.43-2.52.09-3.75,0,0,0,0,0-.01,0,0,0,0,.01,0l1.98,4.01c.76,1.52.9,3.28.37,4.89-.28.84-.72,1.63-1.29,2.31l-1.64,1.84-4.89,5.48c-.58.7-1.02,1.49-1.31,2.35-.4,1.22-.43,2.52-.09,3.76,0,0,0,0,0,0,0,0,0,0,0,0l-1.99-4.01Z"></path><path id="Path_1333" data-name="Path 1333" class="cls-3" d="M57.94,82.05c-.45-.9-.53-1.95-.22-2.91.17-.5.43-.97.77-1.38l.97-1.09,2.91-3.26c.35-.41.61-.89.78-1.4.24-.72.26-1.5.06-2.23h0l1.18,2.38c.46.9.53,1.95.22,2.91-.17.5-.43.97-.77,1.38l-.97,1.09-2.91,3.26c-.34.41-.61.89-.78,1.4-.24.72-.26,1.5-.05,2.23h0l-1.18-2.38Z"></path><path id="Path_1334" data-name="Path 1334" class="cls-3" d="M79.39,105.93c-1.42-.93-2.41-2.39-2.76-4.05-.18-.87-.19-1.77-.04-2.65l.5-2.41,1.49-7.19c.15-.89.14-1.81-.04-2.69-.26-1.25-.88-2.4-1.79-3.3,0,0,0,0,0-.01,0,0,0,0,0,0l3.72,2.48c1.42.93,2.41,2.39,2.76,4.05.18.87.19,1.77.04,2.65l-.5,2.41-1.49,7.19c-.15.89-.14,1.81.04,2.69.26,1.25.89,2.4,1.8,3.3,0,0,0,.02,0,.01l-3.72-2.48Z"></path><path id="Path_1335" data-name="Path 1335" class="cls-3" d="M73.19,95.31c-1.42-.93-2.41-2.39-2.76-4.05-.18-.87-.19-1.77-.04-2.65l.5-2.41,1.49-7.19c.15-.89.14-1.81-.04-2.69-.26-1.25-.88-2.4-1.79-3.3,0,0,0,0,0-.01,0,0,0,0,0,0l3.72,2.48c1.42.93,2.42,2.39,2.76,4.05.18.87.19,1.77.04,2.65l-.5,2.41-1.49,7.19c-.15.89-.14,1.81.04,2.69.26,1.25.89,2.4,1.8,3.3,0,0,0,.02,0,.01l-3.72-2.48Z"></path><path id="Path_1336" data-name="Path 1336" class="cls-3" d="M68.13,81.58c-.84-.55-1.44-1.42-1.64-2.41-.1-.52-.11-1.05-.02-1.58l.3-1.43.89-4.27c.09-.53.09-1.07-.02-1.6-.15-.74-.53-1.43-1.07-1.96h0s2.21,1.46,2.21,1.46c.84.55,1.44,1.42,1.64,2.41.11.52.11,1.05.02,1.58l-.3,1.43-.89,4.28c-.09.53-.09,1.07.02,1.6.16.74.53,1.43,1.07,1.96h0s-2.21-1.47-2.21-1.47Z"></path><path id="Path_1337" data-name="Path 1337" class="cls-3" d="M98.66,91.53c-1.7-.1-3.29-.86-4.42-2.13-.59-.67-1.05-1.44-1.36-2.28l-.77-2.33-2.3-6.98c-.31-.85-.78-1.63-1.38-2.31-.85-.95-1.96-1.63-3.2-1.96,0,0,0-.02,0-.01l4.46.29c1.7.1,3.29.86,4.42,2.13.59.67,1.04,1.44,1.35,2.28l.77,2.33,2.3,6.98c.31.85.78,1.63,1.39,2.31.85.95,1.97,1.63,3.21,1.96,0,0,0,0,0,.01,0,0,0,0,0,0l-4.46-.28Z"></path><path id="Path_1338" data-name="Path 1338" class="cls-3" d="M87.96,85.43c-1.7-.1-3.29-.86-4.42-2.13-.59-.67-1.05-1.44-1.36-2.28l-.77-2.33-2.3-6.98c-.31-.85-.78-1.63-1.38-2.31-.85-.95-1.96-1.63-3.2-1.96,0,0,0,0,0-.01,0,0,0,0,0,0l4.46.29c1.7.1,3.29.86,4.42,2.13.59.67,1.05,1.44,1.36,2.28l.77,2.33,2.3,6.98c.31.85.78,1.63,1.38,2.31.85.95,1.97,1.64,3.21,1.96,0,0,0,0,0,.01,0,0,0,0,0,0l-4.46-.29Z"></path><path id="Path_1339" data-name="Path 1339" class="cls-3" d="M76.72,76.07c-1.01-.06-1.95-.51-2.63-1.27-.35-.4-.62-.86-.81-1.35l-.46-1.39h0l-1.37-4.15c-.19-.51-.46-.97-.82-1.38-.5-.57-1.17-.97-1.9-1.16,0,0,0,0,0,0s0,0,0,0l2.65.17c1.01.06,1.95.51,2.63,1.27.35.4.62.86.81,1.35l.46,1.39,1.37,4.15c.19.51.46.97.82,1.38.51.57,1.17.97,1.91,1.16h0s-2.66-.16-2.66-.16Z"></path><path id="Path_1340" data-name="Path 1340" class="cls-3" d="M108.13,69.43c-1.52.76-3.28.9-4.89.37-.84-.28-1.63-.72-2.31-1.29l-1.83-1.64-5.48-4.89c-.7-.58-1.49-1.02-2.35-1.31-1.21-.4-2.52-.43-3.75-.09,0,0,0,0-.01,0,0,0,0,0,0-.01h0l4.01-1.98c1.52-.76,3.28-.9,4.89-.37.84.28,1.63.72,2.31,1.29l1.83,1.64,5.48,4.89c.7.58,1.49,1.03,2.35,1.31,1.22.4,2.52.43,3.76.09,0,0,.01,0,0,.01l-4,1.98Z"></path><path id="Path_1341" data-name="Path 1341" class="cls-3" d="M95.82,69.49c-1.52.76-3.28.9-4.89.37-.84-.28-1.63-.72-2.31-1.29l-1.83-1.64-5.48-4.89c-.7-.58-1.49-1.03-2.35-1.31-1.21-.4-2.52-.43-3.75-.09,0,0,0,0-.01,0,0,0,0,0,0-.01h0l4.01-1.98c1.52-.76,3.28-.9,4.89-.37.84.28,1.63.72,2.31,1.29l1.84,1.64,5.48,4.89c.7.58,1.49,1.02,2.35,1.31,1.22.4,2.52.43,3.76.09,0,0,.01,0,0,.01l-4.01,1.98Z"></path><path id="Path_1342" data-name="Path 1342" class="cls-3" d="M81.4,67c-.9.45-1.95.53-2.91.22-.5-.17-.97-.43-1.38-.77l-1.09-.97-3.26-2.91c-.41-.35-.89-.61-1.4-.78-.72-.24-1.5-.26-2.23-.06h0s2.38-1.19,2.38-1.19c.9-.46,1.95-.53,2.91-.22.5.17.97.43,1.38.77l1.09.97,3.26,2.91c.41.34.89.61,1.4.78.72.24,1.5.26,2.23.05h0s-2.38,1.19-2.38,1.19Z"></path><path id="Path_1343" data-name="Path 1343" class="cls-3" d="M105.29,45.54c-.93,1.42-2.39,2.41-4.05,2.76-.87.18-1.77.19-2.65.04l-2.41-.5-7.19-1.49c-.89-.15-1.81-.14-2.69.04-1.25.26-2.4.88-3.3,1.8,0,0,0,0-.01,0,0,0,0,0,0,0l2.48-3.72c.93-1.42,2.39-2.42,4.06-2.77.87-.18,1.77-.19,2.65-.04l2.41.5,7.19,1.49c.89.15,1.81.14,2.69-.04,1.25-.26,2.4-.89,3.3-1.8,0,0,.02,0,.01,0l-2.48,3.72Z"></path><path id="Path_1344" data-name="Path 1344" class="cls-3" d="M94.66,51.75c-.93,1.42-2.39,2.41-4.05,2.76-.87.18-1.77.19-2.65.04l-2.41-.5-7.19-1.49c-.89-.15-1.81-.14-2.69.04-1.25.26-2.4.88-3.3,1.8,0,0,0,0-.01,0,0,0,0,0,0,0l2.48-3.72c.93-1.42,2.39-2.42,4.05-2.76.87-.18,1.77-.19,2.65-.04l2.41.5h0l7.19,1.49c.89.15,1.81.14,2.69-.04,1.25-.26,2.4-.89,3.3-1.8,0,0,.02,0,.01,0l-2.48,3.72Z"></path><path id="Path_1345" data-name="Path 1345" class="cls-3" d="M80.93,56.81c-.55.84-1.42,1.44-2.41,1.64-.52.1-1.05.11-1.58.02l-1.43-.3-4.28-.89c-.53-.09-1.07-.08-1.6.02-.74.15-1.43.53-1.96,1.07h0s1.47-2.22,1.47-2.22c.55-.85,1.42-1.44,2.41-1.64.52-.11,1.05-.11,1.57-.02l1.43.3,4.28.89c.53.09,1.07.09,1.6-.02.74-.16,1.43-.53,1.96-1.07h0s-1.47,2.22-1.47,2.22Z"></path><path id="Path_1346" data-name="Path 1346" class="cls-3" d="M90.88,26.28c-.1,1.7-.86,3.29-2.13,4.42-.67.59-1.44,1.05-2.28,1.36l-2.33.77-6.98,2.3c-.85.31-1.63.78-2.31,1.38-.95.85-1.63,1.96-1.96,3.2,0,.01-.02,0-.01,0l.29-4.46c.1-1.7.86-3.29,2.13-4.42.67-.59,1.44-1.05,2.28-1.36l2.33-.77,6.98-2.3c.85-.31,1.63-.78,2.31-1.38.95-.85,1.64-1.97,1.96-3.21,0,0,0,0,.01,0,0,0,0,0,0,0l-.28,4.47Z"></path><path id="Path_1347" data-name="Path 1347" class="cls-3" d="M84.78,36.97c-.1,1.7-.86,3.29-2.13,4.42-.67.59-1.44,1.05-2.28,1.35l-2.33.77-6.98,2.3c-.85.31-1.63.78-2.31,1.38-.95.85-1.63,1.96-1.96,3.2,0,.01-.02,0-.01,0l.29-4.46c.1-1.7.86-3.29,2.13-4.42.67-.59,1.44-1.05,2.28-1.35l2.33-.77,6.98-2.3c.85-.31,1.63-.78,2.31-1.38.95-.85,1.64-1.97,1.96-3.21,0,0,0,0,.01,0,0,0,0,0,0,0l-.29,4.46Z"></path><path id="Path_1348" data-name="Path 1348" class="cls-3" d="M75.42,48.21c-.06,1.01-.51,1.95-1.27,2.63-.4.35-.86.62-1.35.81l-1.39.46-4.15,1.37c-.51.19-.97.46-1.38.82-.57.5-.97,1.17-1.16,1.9,0,0-.01,0,0,0l.17-2.65c.06-1.01.51-1.95,1.27-2.63.4-.35.86-.62,1.35-.81l1.39-.46h0l4.15-1.37c.51-.19.97-.46,1.38-.82.57-.51.97-1.17,1.16-1.91h0l-.17,2.66Z"></path><path id="Path_1349" data-name="Path 1349" class="cls-3" d="M63.26,52.17s-2.3,1.78-1.41,3.52c.31.59,1.05.81,1.64.5.13-.07.25-.16.35-.27,1.27-1.49-.57-3.75-.57-3.75"></path><path id="Path_1350" data-name="Path 1350" class="cls-3" d="M57.8,53.03s-1.11,2.69.54,3.75c.57.35,1.31.18,1.67-.38.08-.13.13-.26.16-.41.35-1.92-2.37-2.96-2.37-2.96"></path><path id="Path_1351" data-name="Path 1351" class="cls-3" d="M53.5,56.51s.39,2.89,2.34,2.98c.67.02,1.23-.5,1.25-1.17,0-.15-.02-.29-.06-.43-.65-1.84-3.53-1.38-3.53-1.38"></path><path id="Path_1352" data-name="Path 1352" class="cls-3" d="M51.52,61.67s1.78,2.3,3.52,1.41c.59-.31.81-1.05.5-1.64-.07-.13-.16-.25-.27-.35-1.49-1.27-3.75.57-3.75.57"></path><path id="Path_1353" data-name="Path 1353" class="cls-3" d="M52.39,67.13s2.69,1.11,3.75-.54c.35-.57.18-1.31-.38-1.67-.13-.08-.26-.13-.41-.16-1.92-.35-2.96,2.37-2.96,2.37"></path><path id="Path_1354" data-name="Path 1354" class="cls-3" d="M55.86,71.43s2.89-.39,2.98-2.34c.02-.67-.5-1.23-1.17-1.25-.15,0-.29.02-.43.06-1.84.65-1.38,3.53-1.38,3.53"></path><path id="Path_1355" data-name="Path 1355" class="cls-3" d="M61.02,73.41s2.3-1.78,1.41-3.52c-.31-.59-1.05-.81-1.64-.5-.13.07-.25.16-.35.27-1.27,1.49.57,3.75.57,3.75"></path><path id="Path_1356" data-name="Path 1356" class="cls-3" d="M66.49,72.55s1.11-2.69-.54-3.75c-.57-.35-1.31-.18-1.67.38-.08.13-.13.26-.16.41-.35,1.92,2.37,2.96,2.37,2.96"></path><path id="Path_1357" data-name="Path 1357" class="cls-3" d="M70.78,69.07s-.39-2.89-2.34-2.98c-.67-.02-1.23.5-1.25,1.17,0,.15.02.29.06.43.65,1.84,3.53,1.38,3.53,1.38"></path><path id="Path_1358" data-name="Path 1358" class="cls-3" d="M72.77,63.91s-1.78-2.3-3.52-1.41c-.59.31-.81,1.05-.5,1.64.07.13.16.25.27.35,1.49,1.27,3.75-.57,3.75-.57"></path><path id="Path_1359" data-name="Path 1359" class="cls-3" d="M71.9,58.45s-2.69-1.11-3.75.54c-.35.57-.18,1.31.38,1.67.13.08.26.13.41.16,1.92.35,2.96-2.37,2.96-2.37"></path><path id="Path_1360" data-name="Path 1360" class="cls-3" d="M68.43,54.15s-2.89.39-2.98,2.34c-.02.67.5,1.23,1.17,1.25.15,0,.29-.02.43-.06,1.84-.65,1.38-3.53,1.38-3.53"></path></g></g></svg>