<svg xmlns="http://www.w3.org/2000/svg" xmlns:xlink="http://www.w3.org/1999/xlink" id="Layer_1" data-name="Layer 1" viewBox="0 0 244.26 196.32"><defs><style>      .cls-1 {        fill: none;      }      .cls-2 {        fill: #3b3835;      }      .cls-3 {        fill: #68839a;      }      .cls-4 {        clip-path: url(#clippath);      }    </style><clipPath id="clippath"><rect class="cls-1" x="14.98" y="16.76" width="214.29" height="162.82"></rect></clipPath></defs><g class="cls-4"><path id="Path_1293" data-name="Path 1293" class="cls-2" d="M44.54,179.36h-4.37v-11.66h4.37c3.67,0,6.23,2.52,6.23,5.83-.02,3.24-2.66,5.86-5.9,5.84-.11,0-.22,0-.33-.01M44.54,169.55h-2.3v7.95h2.3c2.11.13,3.93-1.47,4.06-3.58,0-.13,0-.27,0-.4.09-2.11-1.56-3.89-3.67-3.98-.13,0-.27,0-.4,0"></path><path id="Path_1294" data-name="Path 1294" class="cls-2" d="M65.26,169.53h-6.63v3.05h5.88v1.81h-5.88v3.14h6.72v1.86h-8.75v-11.71h8.66v1.86Z"></path><path id="Path_1295" data-name="Path 1295" class="cls-2" d="M79.42,167.69h2.21l-4.86,11.75h-1.77l-4.86-11.75h2.25l3.53,8.97,3.49-8.97Z"></path><path id="Path_1296" data-name="Path 1296" class="cls-2" d="M95.65,169.53h-6.63v3.05h5.88v1.81h-5.88v3.14h6.72v1.86h-8.75v-11.71h8.66v1.86Z"></path><path id="Path_1297" data-name="Path 1297" class="cls-2" d="M101.5,167.69h2.03v9.81h6.19v1.85h-8.22v-11.66Z"></path><path id="Path_1298" data-name="Path 1298" class="cls-2" d="M120.1,179.58c-3.29.08-6.02-2.53-6.1-5.82,0-.08,0-.15,0-.23-.02-3.33,2.67-6.04,6-6.05.05,0,.1,0,.15,0,3.29-.08,6.02,2.53,6.1,5.82,0,.08,0,.15,0,.23.03,3.31-2.63,6.02-5.95,6.05-.07,0-.13,0-.2,0M120.1,169.37c-2.18,0-3.94,1.76-3.94,3.94,0,.07,0,.14,0,.22-.1,2.18,1.58,4.04,3.77,4.14,2.18.1,4.04-1.58,4.14-3.77,0-.13,0-.25,0-.38.08-2.21-1.64-4.07-3.84-4.15-.04,0-.09,0-.13,0"></path><path id="Path_1299" data-name="Path 1299" class="cls-2" d="M136.44,175.6h-2.34v3.76h-2.08v-11.66h4.64c2.7,0,4.42,1.5,4.42,3.89,0,2.65-2.08,4.02-4.64,4.02M136.49,169.55h-2.39v4.2h2.39c1.55,0,2.52-.84,2.52-2.08,0-1.41-.97-2.12-2.52-2.12"></path><path id="Path_1300" data-name="Path 1300" class="cls-2" d="M152.27,176.51h-.04l-3.67-5.48v8.35h-2.03v-11.66h2.21l3.53,5.52,3.53-5.52h2.21v11.66h-2.08v-8.4l-3.67,5.52Z"></path><path id="Path_1301" data-name="Path 1301" class="cls-2" d="M173.02,169.53h-6.63v3.05h5.88v1.81h-5.88v3.14h6.72v1.86h-8.75v-11.71h8.66v1.86Z"></path><path id="Path_1302" data-name="Path 1302" class="cls-2" d="M187.04,167.69h2.03v11.66h-1.72l-6.45-8.31v8.31h-2.03v-11.66h1.9l6.27,8.08v-8.08Z"></path><path id="Path_1303" data-name="Path 1303" class="cls-2" d="M200.34,179.38h-2.08v-9.77h-3.71v-1.9h9.5v1.9h-3.71v9.77Z"></path><path id="Path_1309" data-name="Path 1309" class="cls-2" d="M20.46,117.01v13.26h2.3c5.83,0,7.78-3.09,7.78-6.76s-1.9-6.49-7.33-6.49h-2.74ZM14.98,144.27v-29.38h9.85c7.03,0,10.96,3.54,10.96,8.75s-4.2,8.75-11.05,8.75h-4.28v11.88h-5.48Z"></path><path id="Path_1310" data-name="Path 1310" class="cls-2" d="M66.1,121.43l-4.24,10.52h8.7l-4.37-10.52h-.09ZM68.58,114.67l12.55,29.6h-5.52l-4.2-10.21h-10.34l-2.34,5.48c-.6,1.53-1.05,3.11-1.33,4.73h-3.67l12.5-29.6h2.35Z"></path><path id="Path_1311" data-name="Path 1311" class="cls-2" d="M102.95,114.89h5.48v27.17h6.05c1.84.04,3.67-.11,5.48-.44v2.65h-17.01v-29.38Z"></path><path id="Path_1312" data-name="Path 1312" class="cls-2" d="M156.86,138.62h.18l11.8-23.82h2.52v29.47h-5.39l.4-18.25h-.13l-9.24,18.47h-2.34l-9.28-18.47h-.13l.26,12.77c-.02,1.84.16,3.68.53,5.48h-3.44v-29.6h2.47l11.8,23.95Z"></path><path id="Path_1313" data-name="Path 1313" class="cls-2" d="M205.54,121.43l-4.24,10.52h8.7l-4.37-10.52h-.09ZM208.02,114.67l12.55,29.6h-5.52l-4.2-10.21h-10.33l-2.34,5.48c-.6,1.53-1.05,3.11-1.33,4.73h-3.67l12.5-29.6h2.34Z"></path><path id="Path_1314" data-name="Path 1314" class="cls-2" d="M222.1,119.3v-4.06h-1.5v-.53h3.66v.53h-1.55v4.06h-.62Z"></path><path id="Path_1315" data-name="Path 1315" class="cls-2" d="M224.86,119.31v-4.6h.93l1.06,3.22.22.71.26-.75,1.1-3.22h.84v4.64h-.57v-3.84l-1.37,3.84h-.53l-1.33-3.89v3.89h-.62Z"></path></g><path id="Path_1316" data-name="Path 1316" class="cls-3" d="M123.72,51.05c0-1.41.21-2.81.62-4.15,1.28-4.15,4.46-6.58,4.33-6.72-.18-.18-2.7,3.09-6.94,4.37-1.29.36-2.63.54-3.98.53-1.34,0-2.68-.17-3.98-.53-4.2-1.28-6.71-4.55-6.89-4.37-.18.13,3,2.56,4.33,6.72.39,1.35.6,2.75.62,4.15,0,1.41-.21,2.81-.62,4.15-1.32,4.15-4.51,6.58-4.33,6.72.18.18,2.7-3.09,6.89-4.37,1.3-.36,2.63-.54,3.98-.53,1.34-.01,2.68.17,3.98.53,4.24,1.28,6.76,4.55,6.94,4.37.13-.13-3.05-2.56-4.33-6.72-.41-1.35-.62-2.75-.62-4.15"></path><path id="Path_1317" data-name="Path 1317" class="cls-3" d="M117.22,84.98l-10.43-16.57.18-.13,10.82,8.48,10.87-8.48.18.13-10.47,16.57c-.18.32-.59.43-.91.24-.1-.06-.19-.14-.24-.24"></path><path id="Path_1318" data-name="Path 1318" class="cls-3" d="M118.38,17.07l10.43,16.57-.18.13-10.82-8.48-10.87,8.48-.18-.13,10.47-16.57c.18-.32.59-.43.91-.24.1.06.19.14.24.24"></path><path id="Path_1319" data-name="Path 1319" class="cls-3" d="M151.73,51.62l-16.57,10.43-.13-.17,8.48-10.83-8.48-10.87.13-.17,16.57,10.47c.32.18.43.59.24.91-.06.1-.14.19-.24.24"></path><path id="Path_1320" data-name="Path 1320" class="cls-3" d="M83.82,50.43l16.57-10.43.13.17-8.48,10.83,8.48,10.87-.13.18-16.57-10.48c-.32-.18-.43-.59-.24-.91.06-.1.14-.19.24-.24"></path></svg>