<svg xmlns="http://www.w3.org/2000/svg" id="Layer_1" data-name="Layer 1" viewBox="0 0 244.26 196.32"><defs><style>      .cls-1 {        fill: #48494b;      }      .cls-2 {        fill: #8c9192;      }      .cls-3 {        fill: #004f7d;      }    </style></defs><path id="Path_1288" data-name="Path 1288" class="cls-3" d="M48.97,138.25c1.25,1.27,1.95,2.97,1.95,4.75.01,1.49-.48,2.94-1.4,4.11-1.05,1.3-2.42,2.3-3.99,2.88-1.96.71-4.03,1.05-6.11,1.01h-14.08v-29.76h13.4c2.09-.05,4.18.29,6.15,1.01,1.53.53,2.89,1.49,3.9,2.76.87,1.11,1.33,2.49,1.31,3.9.04,1.58-.54,3.12-1.61,4.28-1.21,1.2-2.72,2.06-4.37,2.5,1.86.27,3.56,1.17,4.83,2.54M31.12,133.76h7.12c1.55.08,3.08-.3,4.41-1.11,1.05-.69,1.66-1.88,1.61-3.14.04-1.27-.57-2.46-1.61-3.18-1.32-.82-2.86-1.21-4.41-1.11h-7.12v8.53ZM43.5,145.85c1.09-.76,1.71-2.02,1.66-3.35.05-1.38-.6-2.69-1.74-3.48-1.4-.91-3.04-1.36-4.71-1.28h-7.59v9.29h7.8c1.61.1,3.22-.31,4.58-1.18"></path><path id="Path_1289" data-name="Path 1289" class="cls-3" d="M70.72,121.21l-12.55,29.85h5.98l2.54-6.06h14.72l2.5,6.06h6.07l-12.55-29.85h-6.7ZM74.07,127.14l5.72,13.87h-11.49l5.77-13.87Z"></path><path id="Path_1290" data-name="Path 1290" class="cls-3" d="M121.59,121.2v22.22l-17.34-22.22h-5.77v29.85h5.77v-22.26l17.34,22.26h5.77v-29.85h-5.77Z"></path><rect id="Rectangle_2657" data-name="Rectangle 2657" class="cls-3" x="135.39" y="121.25" width="5.77" height="29.81"></rect><path id="Path_1291" data-name="Path 1291" class="cls-3" d="M162.28,121.21l-12.55,29.85h5.98l2.54-6.06h14.71l2.5,6.06h6.1l-12.59-29.85h-6.7ZM165.63,127.14l5.72,13.87h-11.49l5.77-13.87Z"></path><path id="Path_1292" data-name="Path 1292" class="cls-3" d="M213.14,121.2v22.22l-17.34-22.22h-5.77v29.85h5.77v-22.26l17.34,22.26h5.77v-29.85h-5.77Z"></path><rect id="Rectangle_2658" data-name="Rectangle 2658" class="cls-3" x="100.7" y="92.24" width="42.53" height="5.56"></rect><rect id="Rectangle_2659" data-name="Rectangle 2659" class="cls-3" x="100.7" y="83" width="33.33" height="5.56"></rect><rect id="Rectangle_2660" data-name="Rectangle 2660" class="cls-3" x="100.7" y="73.75" width="24.04" height="5.56"></rect><rect id="Rectangle_2661" data-name="Rectangle 2661" class="cls-1" x="128.48" y="48.99" width="5.56" height="30.32"></rect><rect id="Rectangle_2662" data-name="Rectangle 2662" class="cls-1" x="137.68" y="45.26" width="5.56" height="43.34"></rect><rect id="Rectangle_2663" data-name="Rectangle 2663" class="cls-2" x="100.7" y="60.01" width="5.56" height="10.01"></rect><rect id="Rectangle_2664" data-name="Rectangle 2664" class="cls-2" x="109.95" y="56.33" width="5.56" height="13.7"></rect><rect id="Rectangle_2665" data-name="Rectangle 2665" class="cls-1" x="119.19" y="52.64" width="5.56" height="17.39"></rect></svg>